<svg class="icon" viewBox="0 0 1024 1024" version="1.1" xmlns="http://www.w3.org/2000/svg"
     width="24" height="24">
    <path d="M512 434.432v165.216h229.632c-10.08 53.152-40.32 98.144-85.76 128.384l138.496 107.456c80.672-74.464 127.232-183.84 127.232-313.792 0-30.24-2.72-59.36-7.744-87.264H512z"
    />
    <path d="M272.896 593.216l-31.232 23.904-110.56 86.08c70.208 139.264 214.08 235.456 380.896 235.456 115.2 0 211.776-38.016 282.368-103.168l-138.464-107.424c-38.016 25.6-86.496 41.12-143.904 41.12-110.944 0-205.184-74.88-238.944-175.712l-0.16-0.256z"
    />
    <path d="M131.104 320.768A421.408 421.408 0 0 0 85.344 512c0 69.024 16.672 133.824 45.76 191.232 0 0.384 141.984-110.176 141.984-110.176A255.68 255.68 0 0 1 259.488 512c0-28.32 5.056-55.456 13.6-81.088l-141.984-110.144z"
    />
    <path d="M512 255.232c62.848 0 118.72 21.728 163.296 63.616l122.176-122.208c-74.08-69.024-170.24-111.296-285.44-111.296-166.816 0-310.72 95.808-380.928 235.424l141.952 110.176c33.76-100.864 128-175.712 238.944-175.712z"
    />
</svg>