<svg viewBox="0 0 1024 1024" version="1.1" xmlns="http://www.w3.org/2000/svg"
     width="16" height="16">
    <path d="M398.292447 471.146959a200.533333 200.533333 0 1 0 153.481569-370.537285 200.533333 200.533333 0 1 0-153.481569 370.537285Z"
    />
    <path d="M721.066667 678.4c-38.4-25.6-68.266667-68.266667-76.8-115.2-162.133333-38.4-337.066667-21.333333-486.4 55.466667C110.933333 640 85.333333 682.666667 85.333333 733.866667v89.6c0 17.066667 12.8 29.866667 29.866667 29.866666H725.333333c-4.266667-8.533333-4.266667-17.066667-4.266666-21.333333v-153.6z"
    />
    <path d="M964.266667 524.8c0-76.8-64-140.8-140.8-140.8-76.8 0-140.8 64-140.8 140.8 0 34.133333 12.8 64 29.866666 85.333333 12.8 12.8 25.6 25.6 42.666667 38.4 4.266667 0 8.533333 4.266667 8.533333 4.266667v187.733333c0 4.266667 4.266667 4.266667 4.266667 8.533334l42.666667 42.666666c4.266667 4.266667 12.8 4.266667 17.066666 0l59.733334-59.733333c4.266667-4.266667 4.266667-12.8 0-17.066667l-42.666667-42.666666 46.933333-46.933334c4.266667-4.266667 4.266667-12.8 0-17.066666l-34.133333-42.666667c64-21.333333 106.666667-76.8 106.666667-140.8z m-140.8 59.733333c-34.133333 0-59.733333-25.6-59.733334-59.733333 0-34.133333 25.6-59.733333 59.733334-59.733333s59.733333 25.6 59.733333 59.733333c0 34.133333-25.6 59.733333-59.733333 59.733333z"/>
</svg>