<svg t="1747827288599" class="icon" viewBox="0 0 1160 1024" version="1.1" xmlns="http://www.w3.org/2000/svg" p-id="1752" width="24" height="24"><path d="M421.992942 647.550913a38.562364 38.562364 0 0 1-51.172805-15.607706l-2.522089-5.555904-105.489082-231.703152a20.176706 20.176706 0 0 1-1.864153-8.151097 19.33601 19.33601 0 0 1 30.922996-15.49805l124.459572 88.711713a57.496302 57.496302 0 0 0 51.501774 5.884873L1053.794328 204.833043A620.141296 620.141296 0 0 0 580.007254 0.141822C259.665493 0.141822 0.000058 216.529684 0.000058 483.468968a455.035895 455.035895 0 0 0 200.670501 365.520038 38.598916 38.598916 0 0 1 16.22909 31.471275 46.274837 46.274837 0 0 1-2.046912 12.318025l-26.134683 97.484194a56.72871 56.72871 0 0 0-3.143472 14.145626 19.33601 19.33601 0 0 0 19.33601 19.33601 21.931202 21.931202 0 0 0 11.184913-3.6552l126.981661-73.286768a60.74943 60.74943 0 0 1 30.813339-8.918689 58.483206 58.483206 0 0 1 17.069786 2.55864 686.154215 686.154215 0 0 0 189.302827 26.500203c320.341761 0 580.007196-216.387862 580.007197-483.363698a418.410787 418.410787 0 0 0-66.049471-223.954127L426.232974 645.101929z" fill="#3DB160" p-id="1753"></path></svg>